# xmcd
#
# Track frame offsets: 
#        182
#        28275
#        52180
#        64177
#        86927
#        101522
#        120712
#        146005
#        160747
#        176947
#
# Disc length: 2876 seconds
#
# Revision: 5
# Processed by: cddbd v1.5.2PL0 Copyright (c) Steve Scherf et al.
# Submitted via: ExactAudioCopy v1.1
#
DISCID=960b3a0a
DTITLE=B.B. King - Live and Well
DYEAR=1969
DGENRE=Blues
TTITLE0=Don't Answer The Door (stereo)
TTITLE1=Just A Little Love (stereo)
TTITLE2=My Mood (stereo)
TTITLE3=Sweet Little Angel (stereo)
TTITLE4=Please Accept My Love (stereo)
TTITLE5=I Want You So Bad (stereo)
TTITLE6=Friends (stereo)
TTITLE7=Get Off My Back, Woman (stereo)
TTITLE8=Let's Get Down To Business (stereo)
TTITLE9=Why I Sing The Blues (stereo)
EXTD=YEAR: 1969
EXTT0=
EXTT1=
EXTT2=
EXTT3=
EXTT4=
EXTT5=
EXTT6=
EXTT7=
EXTT8=
EXTT9=
PLAYORDER=
